<mxfile host="65bd71144e">
    <diagram id="VRxar2K8jiU3IR261vRW" name="Page-1">
        <mxGraphModel dx="660" dy="371" grid="1" gridSize="10" guides="1" tooltips="1" connect="1" arrows="1" fold="1" page="1" pageScale="1" pageWidth="850" pageHeight="1100" math="0" shadow="0">
            <root>
                <mxCell id="0"/>
                <mxCell id="1" parent="0"/>
                <mxCell id="7" value="" style="rounded=0;whiteSpace=wrap;html=1;dashed=1;" vertex="1" parent="1">
                    <mxGeometry x="70" y="20" width="630" height="240" as="geometry"/>
                </mxCell>
                <mxCell id="3" value="" style="endArrow=none;dashed=1;html=1;dashPattern=1 3;strokeWidth=2;" edge="1" parent="1">
                    <mxGeometry width="50" height="50" relative="1" as="geometry">
                        <mxPoint x="50" y="300" as="sourcePoint"/>
                        <mxPoint x="840" y="300" as="targetPoint"/>
                    </mxGeometry>
                </mxCell>
                <mxCell id="4" value="App Initiation&lt;br&gt;Open main window&lt;br&gt;Initiate login to kite&lt;br&gt;Get Portfolio details" style="rounded=0;whiteSpace=wrap;html=1;" vertex="1" parent="1">
                    <mxGeometry x="80" y="50" width="240" height="60" as="geometry"/>
                </mxCell>
                <mxCell id="5" value="Get Quotes list&lt;br&gt;Decide on the interested Quotes&lt;br&gt;Run script for alerts" style="rounded=0;whiteSpace=wrap;html=1;" vertex="1" parent="1">
                    <mxGeometry x="80" y="120" width="240" height="60" as="geometry"/>
                </mxCell>
                <mxCell id="6" value="Open websockets to get the live data&lt;br&gt;&lt;br&gt;For each websocket, there should be a mechanism to dump data into file system" style="rounded=0;whiteSpace=wrap;html=1;" vertex="1" parent="1">
                    <mxGeometry x="80" y="190" width="240" height="60" as="geometry"/>
                </mxCell>
                <mxCell id="8" value="&lt;font style=&quot;font-size: 18px;&quot; color=&quot;#ffffff&quot;&gt;Main.JS&lt;/font&gt;" style="text;strokeColor=none;fillColor=none;html=1;fontSize=24;fontStyle=1;verticalAlign=middle;align=center;labelBackgroundColor=none;fontColor=none;" vertex="1" parent="1">
                    <mxGeometry x="150" y="20" width="100" height="20" as="geometry"/>
                </mxCell>
                <mxCell id="11" value="&lt;font style=&quot;font-size: 7px;&quot;&gt;Static information about portfolio, positions, balance, PnL, Exposure&lt;br&gt;Information about the Quotes in focus today&lt;br&gt;Information about the application state&lt;br&gt;&lt;span style=&quot;white-space: pre;&quot;&gt;&#9;&lt;/span&gt;Open windows&lt;br&gt;&lt;span style=&quot;white-space: pre;&quot;&gt;&#9;&lt;/span&gt;Which quote to stream to which window(Price ladder)&lt;br&gt;&lt;span style=&quot;white-space: pre;&quot;&gt;&#9;&lt;/span&gt;Current position of the windows, and that needs to be save to json on close&lt;br&gt;&lt;span style=&quot;white-space: pre;&quot;&gt;&#9;&lt;/span&gt;Metrics like memory usage, network usage, error management&lt;br&gt;&lt;br&gt;&lt;/font&gt;" style="text;html=1;strokeColor=none;fillColor=none;align=left;verticalAlign=top;whiteSpace=wrap;rounded=0;dashed=1;labelBackgroundColor=none;fontSize=10;fontColor=#FFFFFF;horizontal=1;" vertex="1" parent="1">
                    <mxGeometry x="425" y="50" width="255" height="170" as="geometry"/>
                </mxCell>
            </root>
        </mxGraphModel>
    </diagram>
</mxfile>